<?xml version="1.0" encoding="UTF-8"?>
<svg width="15px" height="15px" viewBox="0 0 15 15" version="1.1" xmlns="http://www.w3.org/2000/svg" xmlns:xlink="http://www.w3.org/1999/xlink">
    <!-- Generator: Sketch 56.3 (81716) - https://sketch.com -->
    <title>Check</title>
    <desc>Created with Sketch.</desc>
    <g id="Check" stroke="none" stroke-width="1" fill="none" fill-rule="evenodd">
        <g>
            <rect id="Rectangle-10" fill="#2ECC71" x="0" y="0" width="15" height="15" rx="3"></rect>
            <path d="M6.05858646,10.8417973 L3.12304658,7.92383546 C3.04101544,7.84180432 3,7.73633582 3,7.60742996 C3,7.47852411 3.04101544,7.37305561 3.12304658,7.29102447 L3.77343566,6.65821348 C3.8554668,6.56446379 3.95800553,6.51758881 4.08105211,6.51758881 C4.20409869,6.51758881 4.31249696,6.56446379 4.40624665,6.65821348 L6.37499195,8.62695878 L10.5937319,4.40821884 C10.6874816,4.31446915 10.7958799,4.26759418 10.9189264,4.26759418 C11.041973,4.26759418 11.1445117,4.31446915 11.2265429,4.40821884 L11.876932,5.04102983 C11.9589631,5.12306098 11.9999785,5.22852947 11.9999785,5.35743533 C11.9999785,5.48634118 11.9589631,5.59180968 11.876932,5.67384082 L6.69139745,10.8417973 C6.60936631,10.9355469 6.50389781,10.9824219 6.37499195,10.9824219 C6.2460861,10.9824219 6.1406176,10.9355469 6.05858646,10.8417973 Z" id="check" fill="#FFFFFF"></path>
        </g>
    </g>
</svg>