<?xml version="1.0" encoding="UTF-8"?>
<svg width="15px" height="15px" viewBox="0 0 15 15" version="1.1" xmlns="http://www.w3.org/2000/svg" xmlns:xlink="http://www.w3.org/1999/xlink">
    <!-- Generator: Sketch 56.3 (81716) - https://sketch.com -->
    <title>Times</title>
    <desc>Created with Sketch.</desc>
    <g id="Symbols" stroke="none" stroke-width="1" fill="none" fill-rule="evenodd">
        <g id="Times">
            <g>
                <rect id="Rectangle-10" fill="#EF0404" x="0" y="0" width="15" height="15" rx="3"></rect>
                <path d="M8.83238636,7.5 L10.8210227,9.48863636 C10.9403409,9.60795455 11,9.75378778 11,9.92613636 C11,10.0984849 10.9403409,10.2509469 10.8210227,10.3835227 L10.3835227,10.8210227 C10.2509469,10.9403409 10.0984849,11 9.92613636,11 C9.75378778,11 9.60795455,10.9403409 9.48863636,10.8210227 L7.5,8.83238636 L5.51136364,10.8210227 C5.39204545,10.9403409 5.24621222,11 5.07386364,11 C4.90151505,11 4.74905313,10.9403409 4.61647727,10.8210227 L4.17897727,10.3835227 C4.05965909,10.2509469 4,10.0984849 4,9.92613636 C4,9.75378778 4.05965909,9.60795455 4.17897727,9.48863636 L6.16761364,7.5 L4.17897727,5.51136364 C4.05965909,5.39204545 4,5.24621222 4,5.07386364 C4,4.90151505 4.05965909,4.74905313 4.17897727,4.61647727 L4.61647727,4.17897727 C4.74905313,4.05965909 4.90151505,4 5.07386364,4 C5.24621222,4 5.39204545,4.05965909 5.51136364,4.17897727 L7.5,6.16761364 L9.48863636,4.17897727 C9.60795455,4.05965909 9.75378778,4 9.92613636,4 C10.0984849,4 10.2509469,4.05965909 10.3835227,4.17897727 L10.8210227,4.61647727 C10.9403409,4.74905313 11,4.90151505 11,5.07386364 C11,5.24621222 10.9403409,5.39204545 10.8210227,5.51136364 L8.83238636,7.5 Z" id="times" fill="#FFFFFF"></path>
            </g>
        </g>
    </g>
</svg>