<?xml version="1.0" encoding="UTF-8"?>
<svg width="15px" height="15px" viewBox="0 0 15 15" version="1.1" xmlns="http://www.w3.org/2000/svg" xmlns:xlink="http://www.w3.org/1999/xlink">
    <!-- Generator: Sketch 56.3 (81716) - https://sketch.com -->
    <title>Unknown</title>
    <desc>Created with Sketch.</desc>
    <g id="Unknown" stroke="none" stroke-width="1" fill="none" fill-rule="evenodd">
        <g>
            <rect id="Rectangle-10" fill="#FFB21D" x="0" y="0" width="15" height="15" rx="3"></rect>
            <path d="M7.10780509,3 C7.61171023,3 8.10096679,3.12011681 8.57557503,3.3603507 C9.05018327,3.60058459 9.43397133,3.91991959 9.72693947,4.31835623 C10.043345,4.75194904 10.2015477,5.21483847 10.2015477,5.7070248 C10.2015477,6.09374262 10.1195166,6.43358547 9.95545455,6.72655362 C9.81482989,6.97264678 9.62147097,7.19530259 9.37537781,7.39452077 C9.22303433,7.51170808 8.99451925,7.65819202 8.68983257,7.83397285 C8.44373941,7.97459751 8.27967739,8.08006601 8.19764624,8.15037835 C8.05702158,8.26756566 7.98670924,8.39061224 7.98670924,8.51951809 L7.98670924,8.62498659 C7.98670924,8.7421739 7.94569381,8.84178286 7.86366266,8.923814 C7.78163152,9.00584515 7.68202256,9.04686058 7.56483525,9.04686058 L6.29921327,9.04686058 C6.18202596,9.04686058 6.082417,9.00584515 6.00038586,8.923814 C5.91835471,8.84178286 5.87733927,8.7421739 5.87733927,8.62498659 L5.87733927,8.44920576 C5.87733927,7.98045679 6.02968275,7.58202041 6.33436943,7.25389611 C6.52186908,7.06639647 6.83827457,6.8496002 7.28358592,6.60350703 L7.31874209,6.58592895 C7.63514758,6.41014812 7.84608458,6.26952345 7.95155308,6.16405496 C8.10389655,6.02343029 8.18006816,5.86522754 8.18006816,5.68944671 C8.18006816,5.43163474 8.04530277,5.22069774 7.77577225,5.05663572 C7.52967908,4.8925737 7.26014857,4.81054256 6.96718043,4.81054256 C6.65077493,4.81054256 6.38124441,4.88671416 6.1585886,5.03905764 C5.98280777,5.15624495 5.7660115,5.36718195 5.50819953,5.67186863 C5.4378872,5.76561832 5.34706701,5.82128234 5.23573924,5.83886042 C5.12441147,5.8564385 5.02187247,5.83007138 4.92812279,5.75975905 L4.17226521,5.1796823 C4.07851553,5.10936997 4.02285151,5.01854979 4.00527342,4.90722202 C3.98769534,4.79589425 4.01406247,4.69335525 4.0843748,4.59960556 C4.45937382,4.07226307 4.87538854,3.67968597 5.3324187,3.42187399 C5.83632384,3.14062466 6.42811912,3 7.10780509,3 Z M6.93202426,9.55662499 C7.27186711,9.55662499 7.55897598,9.6767418 7.79335033,9.9169757 C8.02772468,10.1572096 8.14491199,10.4443182 8.14491199,10.7783018 C8.14491199,11.1122853 8.02772468,11.3993939 7.79335033,11.6396278 C7.55897598,11.8798617 7.27186711,11.9999785 6.93202426,11.9999785 C6.59218141,11.9999785 6.30507254,11.8798617 6.07069819,11.6396278 C5.83632384,11.3993939 5.71913653,11.1122853 5.71913653,10.7783018 C5.71913653,10.4443182 5.83632384,10.1572096 6.07069819,9.9169757 C6.30507254,9.6767418 6.59218141,9.55662499 6.93202426,9.55662499 Z" id="question" fill="#FFFFFF"></path>
        </g>
    </g>
</svg>